#define left2_width 16
#define left2_height 16
static unsigned char left2_bits[] = {
   0x00, 0x00, 0x00, 0x00, 0x00, 0x00, 0x00, 0x0c, 0x00, 0x6f, 0xc0, 0x7f,
   0xf0, 0x7c, 0x3c, 0x0c, 0x3c, 0x0c, 0xf0, 0x0c, 0xc0, 0x0f, 0x00, 0x7f,
   0x00, 0x7c, 0x00, 0x60, 0x00, 0x00, 0x00, 0x00};
