#define left_width 16
#define left_height 16
static unsigned char left_bits[] = {
   0x00, 0x00, 0x00, 0x00, 0x00, 0x00, 0x00, 0x18, 0x00, 0x1e, 0x80, 0x1f,
   0xe0, 0x19, 0x78, 0x18, 0x78, 0x18, 0xe0, 0x19, 0x80, 0x1f, 0x00, 0x1e,
   0x00, 0x18, 0x00, 0x00, 0x00, 0x00, 0x00, 0x00};
