#define up3_width 16
#define up3_height 16
static unsigned char up3_bits[] = {
   0xc0, 0x00, 0xc0, 0x00, 0xe0, 0x01, 0xe0, 0x01, 0x30, 0x03, 0x30, 0x03,
   0x18, 0x06, 0x18, 0x06, 0xfc, 0x0f, 0xfc, 0x0f, 0x30, 0x0c, 0x38, 0x1c,
   0x38, 0x1c, 0x60, 0x18, 0x70, 0x38, 0x70, 0x38};
