#define left0_width 16
#define left0_height 16
static unsigned char left0_bits[] = {
   0x00, 0x00, 0x00, 0x00, 0x00, 0x00, 0x00, 0x00, 0x00, 0x0c, 0x00, 0x0f,
   0xc0, 0x0f, 0xf0, 0x0c, 0xf0, 0x0c, 0xc0, 0x0f, 0x00, 0x0f, 0x00, 0x0c,
   0x00, 0x00, 0x00, 0x00, 0x00, 0x00, 0x00, 0x00};
