#define left3_width 16
#define left3_height 16
static unsigned char left3_bits[] = {
   0x00, 0x00, 0x00, 0x00, 0x00, 0x03, 0xc0, 0x1b, 0xf0, 0xdf, 0x3c, 0xff,
   0x0f, 0xe3, 0x0f, 0x03, 0x3c, 0x03, 0xf0, 0x03, 0xc0, 0x1f, 0x00, 0xff,
   0x00, 0xf8, 0x00, 0xc0, 0x00, 0x00, 0x00, 0x00};
