#define reload_width 16
#define reload_height 16
static unsigned char reload_bits[] = {
   0x00, 0x00, 0xe0, 0x03, 0xf8, 0x8f, 0x3c, 0xde, 0x0e, 0xf8, 0x06, 0xfe,
   0x07, 0xfc, 0x03, 0xf0, 0x03, 0xe0, 0x03, 0xc0, 0x07, 0x00, 0x06, 0x60,
   0x0e, 0x70, 0x3c, 0x3c, 0xf8, 0x1f, 0xe0, 0x07};
