#define right2b_width 16
#define right2b_height 16
static unsigned char right2b_bits[] = {
   0x00, 0x00, 0x00, 0x00, 0x00, 0x00, 0x30, 0x00, 0xf6, 0x00, 0xfe, 0x03,
   0x3e, 0x0f, 0x36, 0x3c, 0x36, 0x3c, 0x36, 0x0f, 0xf6, 0x03, 0xfe, 0x00,
   0x3e, 0x00, 0x06, 0x00, 0x00, 0x00, 0x00, 0x00};
