#define right3b_width 16
#define right3b_height 16
static unsigned char right3b_bits[] = {
   0x00, 0x00, 0x00, 0x00, 0xc0, 0x00, 0xd8, 0x03, 0xfb, 0x0f, 0xff, 0x3c,
   0xdf, 0xf0, 0xdb, 0xf0, 0xdb, 0x3c, 0xdb, 0x0f, 0xfb, 0x03, 0xff, 0x00,
   0x1f, 0x00, 0x03, 0x00, 0x00, 0x00, 0x00, 0x00};
