#define right3_width 16
#define right3_height 16
static unsigned char right3_bits[] = {
   0x00, 0x00, 0x00, 0x00, 0xc0, 0x00, 0xd8, 0x03, 0xfb, 0x0f, 0xff, 0x3c,
   0xc7, 0xf0, 0xc0, 0xf0, 0xc0, 0x3c, 0xc0, 0x0f, 0xf8, 0x03, 0xff, 0x00,
   0x1f, 0x00, 0x03, 0x00, 0x00, 0x00, 0x00, 0x00};
