#define right0_width 16
#define right0_height 16
static unsigned char right0_bits[] = {
   0x00, 0x00, 0x00, 0x00, 0x00, 0x00, 0x00, 0x00, 0x30, 0x00, 0xf0, 0x00,
   0xf0, 0x03, 0x30, 0x0f, 0x30, 0x0f, 0xf0, 0x03, 0xf0, 0x00, 0x30, 0x00,
   0x00, 0x00, 0x00, 0x00, 0x00, 0x00, 0x00, 0x00};
