#define up2_width 16
#define up2_height 16
static unsigned char up2_bits[] = {
   0x00, 0x00, 0x00, 0x00, 0x80, 0x01, 0x80, 0x01, 0xc0, 0x03, 0xc0, 0x03,
   0x60, 0x06, 0x60, 0x06, 0x30, 0x0c, 0x30, 0x0c, 0xf8, 0x1f, 0xf8, 0x1f,
   0x60, 0x18, 0x70, 0x38, 0x70, 0x38, 0x00, 0x00};
